<?xml version="1.0" encoding="UTF-8" standalone="no"?>
<!-- Created with Inkscape (http://www.inkscape.org/) -->

<svg
   xmlns:dc="http://purl.org/dc/elements/1.1/"
   xmlns:cc="http://creativecommons.org/ns#"
   xmlns:rdf="http://www.w3.org/1999/02/22-rdf-syntax-ns#"
   xmlns:svg="http://www.w3.org/2000/svg"
   xmlns="http://www.w3.org/2000/svg"
   xmlns:sodipodi="http://sodipodi.sourceforge.net/DTD/sodipodi-0.dtd"
   xmlns:inkscape="http://www.inkscape.org/namespaces/inkscape"
   version="1.1"
   id="svg2528"
   width="378.31528"
   height="357.64471"
   viewBox="0 0 378.31528 357.64471"
   sodipodi:docname="cloud pikachu.svg"
   inkscape:version="0.92.2 (5c3e80d, 2017-08-06)">
  <metadata
     id="metadata2534">
    <rdf:RDF>
      <cc:Work
         rdf:about="">
        <dc:format>image/svg+xml</dc:format>
        <dc:type
           rdf:resource="http://purl.org/dc/dcmitype/StillImage" />
        <dc:title></dc:title>
      </cc:Work>
    </rdf:RDF>
  </metadata>
  <defs
     id="defs2532" />
  <sodipodi:namedview
     pagecolor="#ffffff"
     bordercolor="#666666"
     borderopacity="1"
     objecttolerance="10"
     gridtolerance="10"
     guidetolerance="10"
     inkscape:pageopacity="0"
     inkscape:pageshadow="2"
     inkscape:window-width="1916"
     inkscape:window-height="1154"
     id="namedview2530"
     showgrid="false"
     inkscape:zoom="1.7566021"
     inkscape:cx="199.46173"
     inkscape:cy="132.76971"
     inkscape:window-x="0"
     inkscape:window-y="22"
     inkscape:window-maximized="0"
     inkscape:current-layer="svg2528"
     fit-margin-top="0"
     fit-margin-left="0"
     fit-margin-right="0"
     fit-margin-bottom="0" />
  <path
     style="fill:none;stroke:#000000;stroke-width:1.20000005;stroke-linecap:butt;stroke-linejoin:miter;stroke-miterlimit:4;stroke-dasharray:none;stroke-opacity:1"
     d="m 324.13071,223.94954 c -2.49442,-0.75235 -2.97097,-1.6448 -4.782,-7.21996 -2.45256,-7.55009 -7.73802,-20.19754 -13.01297,-28.17033 -4.78868,-7.23784 -16.05067,-19.11876 -23.71686,-25.02028 -5.93431,-4.5683 -21.84113,-13.25036 -26.40026,-14.40945 -1.88903,-0.48026 -2.26048,-1.07966 -1.80624,-2.91472 0.31451,-1.27057 1.36049,-5.35644 2.32439,-9.07971 2.45925,-9.4993 1.04257,-19.0097 -4.4849,-30.10795 -7.02238,-14.099805 -18.17857,-25.499535 -38.03822,-38.868655 -13.6335,-9.1778 -21.38243,-18.45261 -22.82046,-27.31412 -1.42924,-8.8074 7.1178,-19.65064 21.46002,-27.22533 8.09758,-4.27666 8.11243,-4.29186 7.08121,-7.25 -1.19859,-3.43828 -1.36945,-3.4758 -6.35082,-1.39445 -6.65279,2.77972 -16.10154,9.31069 -20.91441,14.45603 -6.18399,6.61119 -8.52548,11.95008 -8.54077,19.47405 -0.0247,12.17449 7.43564,22.09779 26.96827,35.87142 26.8558,18.93762 39.08474,35.878885 38.95623,53.967675 -0.0241,3.3885 -0.81157,8.41091 -1.75,11.16091 -1.95066,5.71628 -0.90787,5.48484 -17.20623,3.81877 -10.55837,-1.07931 -25.00915,-0.14853 -34.04472,2.19282 -10.45809,2.70996 -9.82448,3.58684 -9.22123,-12.76159 0.59173,-16.03596 -0.66032,-23.30764 -5.43492,-31.56507 -3.37886,-5.843575 -12.7491,-15.192255 -18.75524,-18.712085 -2.49914,-1.46459 -4.54389,-3.2963 -4.54389,-4.07047 0,-0.77417 1.71504,-2.95701 3.81119,-4.85076 2.09615,-1.89375 5.1312,-6.05508 6.74454,-9.2474 2.59525,-5.13523 2.93397,-6.84155 2.93881,-14.80422 0.005,-7.83493 -0.35626,-9.73659 -2.78878,-14.69008 -3.6182,-7.36798 -11.94976,-15.04439 -18.94422,-17.45454 -16.30758,-5.61925 -34.23191,1.65729 -41.71996,16.9366 -4.48896,9.15969 -4.93802,16.21195 -1.65426,25.97908 1.43698,4.27408 2.61268,7.98658 2.61268,8.25 0,0.26342 -1.50302,0.47894 -3.34004,0.47894 -5.75908,0 -18.82809,3.82524 -27.31221,7.99416 -4.48373,2.20321 -8.35828,4.00584 -8.6101,4.00584 -0.25181,0 -0.70715,-2.3625 -1.01186,-5.25 -0.83618,-7.92377 -4.05347,-14.24639 -10.47361,-20.58276 -4.01151,-3.95916 -7.41654,-6.27682 -11.25218,-7.65888 -28.49257,-10.26649 -55.3336002,18.77205 -42.4751302,45.95262 3.4626,7.319335 9.0179902,12.741425 16.9173802,16.511465 9.57344,4.56898 9.94859,5.24306 9.66999,17.37503 -0.54359,23.67065 7.34884,38.67836 27.99062,53.22501 12.81658,9.03209 17.22721,19.22551 15.03284,34.74239 -1.46942,10.39058 -6.78993,23.71108 -10.1357,25.37587 -1.375,0.68417 -5.46283,2.59599 -9.08406,4.24849 -19.24098,8.78035 -31.91594,28.52519 -31.91594,49.71811 0,3.73172 -0.56827,4.8583 -4.36657,8.6566 -19.99717025,19.99717 3.07231,53.00306 29.14756,41.70192 l 5.28099,-2.28881 7.21901,2.13406 c 14.27096,4.21874 24.50788,3.82695 36.99548,-1.41592 3.42294,-1.4371 7.42281,-3.10941 8.88861,-3.71624 2.2613,-0.93615 3.70061,-0.63301 9.5,2.00086 8.76625,3.98131 16.69934,5.6092 27.33492,5.6092 10.2926,0 18.12836,-1.56071 27.72467,-5.52215 l 7.22468,-2.98241 8.9539,3.02582 c 12.71239,4.29594 19.90748,5.477 33.59675,5.51483 12.87736,0.0356 22.53878,-1.64615 34.79949,-6.05747 l 6.79949,-2.44641 5.20051,3.43303 c 9.52661,5.4675 17.18357,10.60489 26.81761,11.34383 90.87225,3.21118 107.31018,-112.39743 28.91692,-130.10321 z m -27.53402,132.80879 c -10.00842,-0.69936 -21.51842,-6.23811 -29.82713,-11.78219 l -3.82717,-2.61593 -9.17283,2.92324 c -13.5338,4.31303 -22.72656,5.49762 -37.45502,4.82651 -12.37934,-0.56406 -25.07952,-3.16386 -34.01716,-6.9635 -3.01873,-1.28335 -3.7102,-1.20602 -8.13006,0.90925 -16.72621,8.00487 -42.04682,8.22816 -58.52708,0.51612 l -6.17541,-2.88983 -4.44955,2.26132 c -2.44725,1.24373 -7.74859,3.26338 -11.78077,4.48812 -6.22396,1.89047 -8.86471,2.14838 -17.4845,1.70762 -6.39992,-0.32725 -12.20365,-1.2525 -15.69977,-2.5029 -5.53221,-1.97862 -5.55647,-1.97862 -9.41796,0.002 -9.57876,4.91419 -22.80251,2.9279 -31.28583,-4.69933 -12.0317902,-10.81716 -12.7980702,-29.61285 -1.67394,-41.05874 4.19183,-4.31307 4.42422,-4.8543 4.42422,-10.3037 0,-21.78757 17.56992,-45.03646 38.71867,-51.23338 3.97225,-1.16394 4.38946,-1.65094 7.14243,-8.33724 8.98483,-21.82193 6.4323,-37.52601 -7.71702,-47.47794 -10.86536,-7.64215 -19.61042,-16.57904 -23.53926,-24.05564 -5.17097,-9.84037 -6.77799,-16.7903 -6.98238,-30.19687 -0.12335,-8.09127 -0.58957,-12.12612 -1.53242,-13.26218 -0.74532,-0.89806 -4.10798,-2.94942 -7.47257,-4.55858 -7.61013,-3.63965 -13.7896802,-9.67269 -17.3694902,-16.957715 -2.46872005,-5.02391 -2.74762005,-6.65917 -2.74467005,-16.09218 0.003,-9.62176 0.24825,-10.98432 2.93208005,-16.29047 C 15.2652,39.916875 47.9644,36.541795 64.57555,56.813515 c 3.83096,4.67518 7.52118,13.68553 7.52118,18.36432 v 2.82314 l 7.72935,-3.77017 c 7.72998,-3.77046 18.53713,-6.82614 24.14237,-6.82614 h 2.97691 l -2.02922,-5.75 c -4.53707,-12.85621 -0.27167,-30.3421 9.47259,-38.83263 10.26477,-8.94408 24.28778,-11.71459 37.33781,-7.37678 16.21982,5.39144 27.05003,24.23651 23.48417,40.86356 -1.51866,7.08125 -5.65178,15.25554 -9.69509,19.17447 l -3.32907,3.22666 4.33546,2.74947 c 5.82311,3.69291 14.58243,12.57632 17.77903,18.0309 5.00839,8.546175 6.29258,15.022715 6.10241,30.776025 l -0.17337,14.36166 3.18332,-0.68263 c 16.94136,-3.63288 30.07481,-4.36271 43.24858,-2.40336 8.90862,1.32499 8.72999,1.455 10.39949,-7.56843 1.42088,-7.67972 0.18455,-14.69632 -4.15286,-23.56891 -4.28529,-8.76595 -18.72301,-23.140765 -33.85944,-33.711885 -18.52661,-12.93879 -26.47812,-23.19307 -27.59642,-35.58839 -1.23313,-13.66811 8.27828,-26.67713 26.30283,-35.97512 11.33491,-5.84713001 12.66415,-5.92760001 14.18286,-0.85859 1.98532,6.6264 1.63342,7.41341 -4.50321,10.0713 -8.0664,3.4937 -16.94328,10.37004 -20.37735,15.785 -7.11332,11.21655 -1.76537,21.34187 18.93976,35.85875 30.96997,21.71384 44.09909,40.461215 44.09909,62.970105 0,3.92203 -0.67013,9.33999 -1.48918,12.0399 -0.81904,2.69991 -1.49404,4.99978 -1.5,5.11083 -0.006,0.11104 3.78786,1.98202 8.43069,4.15772 4.64283,2.17571 11.05461,5.68485 14.2484,7.7981 7.66065,5.06887 19.39526,16.25581 25.52294,24.33175 6.02915,7.94609 13.76135,23.19918 16.32385,32.2016 1.29038,4.53329 2.65173,6.71133 2.8656,6.765 89.85741,23.12874 55.99593,142.28147 -27.90234,135.39759 z"
     id="path4599"
     inkscape:connector-curvature="0"
     sodipodi:nodetypes="cscscscsscscsccscssssssssscssscsssssssscssscsssscsccssscscsccccccccscscccsssccsscsssscssssssccscssssscsssccsccsssscsssccccsscc" />
  <path
     style="fill:none;stroke:#000000;stroke-width:1.20000005;stroke-linecap:butt;stroke-linejoin:miter;stroke-miterlimit:4;stroke-dasharray:none;stroke-opacity:1"
     d="m 78.09673,238.92572 c 0,-0.81342 1.18966,-4.97592 2.64368,-9.25 1.91124,-5.61806 2.7765,-10.56114 3.1231,-17.84168 0.55484,-11.65475 -0.93416,-18.33445 -5.67296,-25.44899 -2.87668,-4.31887 -5.04418,-6.21849 -19.02333,-16.6723 -12.41804,-9.28638 -18.4894,-22.2398 -18.40105,-39.25919 0.03,-5.78574 0.66251,-11.43745 1.60489,-14.34107 l 1.55532,-4.79217 -3.66482,-2.40926 c -2.01566,-1.32509 -5.84096,-2.89167 -8.50068,-3.4813 -9.79251,-2.17086 -15.88848,-6.951465 -19.79681,-15.525095 -2.4540302,-5.38337 -2.4425802,-15.01676 0.0246,-20.66709 3.87316,-8.87041 14.20651,-15.76992 23.67995,-15.81094 15.3858,-0.0666 26.42814,10.83458 26.42814,26.09035 0,6.61437 0.061,6.76793 3.8939,9.80365 2.14165,1.69622 4.23668,3.08403 4.65561,3.08403 0.41894,0 2.15418,-1.06116 3.8561,-2.35812 7.67752,-5.85076 19.07522,-10.12336 31.04532,-11.63779 4.37301,-0.55327 8.26965,-1.34303 8.65921,-1.75501 0.38955,-0.41199 1.40292,-3.12181 2.25193,-6.02182 1.47172,-5.02708 1.44717,-5.43626 -0.52695,-8.78213 -2.98165,-5.05352 -3.616,-15.1119 -1.33048,-21.09644 3.79806,-9.94509 14.03421,-17.31959 24.06722,-17.33892 10.83475,-0.0209 19.43631,5.21974 24.05208,14.65402 5.93715,12.13512 2.39412,25.86926 -8.62394,33.4297 -4.29771,2.94902 -5.75182,4.63682 -6.65199,7.72102 -1.68535,4.44419 6.14922,7.18915 11.09723,10.62034 18.22884,12.129055 21.96551,20.773375 20.81732,48.158315 l -0.5735,13.67832 -2.92733,1.61426 c -23.39431,12.90069 -39.16726,29.91737 -48.83468,52.68541 l -3.42705,8.07115 -9.79738,4.70256 c -8.35655,4.01099 -11.03276,5.94911 -18.19768,13.17885 -8.09036,8.16356 -8.56824,8.47629 -12.95261,8.47629 -3.35105,0 -4.55233,-0.39027 -4.55233,-1.47895 z"
     id="path4597"
     inkscape:connector-curvature="0" />
  <path
     style="fill:none;stroke:#000000;stroke-width:1.20000005;stroke-linecap:butt;stroke-linejoin:miter;stroke-miterlimit:4;stroke-dasharray:none;stroke-opacity:1"
     d="m 89.09673,234.83492 c 4.25593,-5.98333 15.09664,-14.37686 24.21699,-18.75027 4.79434,-2.29899 8.73184,-4.66987 8.75,-5.26863 0.0884,-2.9145 10.44401,-21.84924 15.92042,-29.10969 9.19394,-12.18901 22.42508,-23.42937 34.22344,-29.07411 l 3.61084,-1.72755 0.63398,-9.5 c 0.99577,-14.92121 0.76535,-22.22948 -0.87501,-27.75317 -1.7786,-5.98918 -7.70687,-13.886865 -13.72621,-18.286125 -7.36682,-5.38407 -14.87534,-9.96071 -16.34173,-9.96071 -1.72364,0 -1.80573,-2.9562 -0.22829,-8.22122 0.93164,-3.10955 2.30202,-4.66819 6.42092,-7.30302 20.27845,-12.97197 11.31372,-43.86705 -12.68673,-43.72215 -11.67019,0.0705 -21.57559,9.10765 -23.41309,21.36092 -0.55914,3.72867 -0.17601,5.86803 2.04524,11.4203 2.56786,6.41862 2.65577,7.13876 1.45246,11.89865 -2.44814,9.68405 -2.34595,9.56652 -8.31852,9.56652 -10.56005,0 -26.43794,5.53486 -35.62899,12.41989 -1.89435,1.41906 -3.99299,2.58011 -4.66364,2.58011 -0.67064,0 -3.39148,-1.72057 -6.04631,-3.82348 l -4.82695,-3.82348 -0.009,-7.42652 c -0.008,-6.33364 -0.42394,-8.13172 -2.82628,-12.21868 -3.57237,-6.07746 -9.38971,-10.30694 -16.00626,-11.63728 -6.17502,-1.24157 -10.84652,-0.33326 -17.08299,3.32155 -5.28723,3.09853 -8.32594,7.06718 -10.21355,13.33925 -1.93917,6.44336 -1.71546,10.007 0.99336,15.82425 3.81468,8.19208 12.69323,14.385485 20.74232,14.469185 2.62258,0.0273 11.64206,6.1812 12.55807,8.56829 0.31722,0.82665 -0.11896,2.04389 -0.96928,2.70496 -3.48358,2.70829 -4.80097,16.3982 -2.58887,26.90274 2.52488,11.98983 8.88699,21.01937 20.25679,28.7498 13.56093,9.22021 19.42196,17.19039 21.72977,29.54942 1.70301,9.12018 -0.26632,24.35232 -4.61075,35.66254 -0.42749,1.11293 -0.0358,1.81839 1.18482,2.13399 3.36002,0.86877 3.81262,0.66362 6.32343,-2.86628 z"
     id="path4595"
     inkscape:connector-curvature="0" />
  <path
     style="fill:none;stroke:#000000;stroke-width:1.20000005;stroke-linecap:butt;stroke-linejoin:miter;stroke-miterlimit:4;stroke-dasharray:none;stroke-opacity:1"
     d="m 106.9818,177.02505 c -6.03804,-2.15776 -9.62728,-5.39414 -12.50468,-11.27532 -2.41645,-4.93906 -2.56005,-5.73995 -1.20595,-6.72587 0.84542,-0.61555 10.42516,-3.31786 21.28831,-6.00513 22.435,-5.54985 21.9972,-5.62049 20.98511,3.38594 -1.26542,11.26086 -6.15557,17.64784 -15.67678,20.47534 -6.14005,1.8234 -8.12689,1.84576 -12.88601,0.14504 z"
     id="path4593"
     inkscape:connector-curvature="0" />
  <path
     style="fill:none;stroke:#000000;stroke-width:1.20000005;stroke-linecap:butt;stroke-linejoin:miter;stroke-miterlimit:4;stroke-dasharray:none;stroke-opacity:1"
     d="m 121.6381,173.52501 c 4.93188,-2.24025 9.03308,-6.92692 10.41462,-11.90139 1.08533,-3.90788 1.40985,-10.21895 0.52547,-10.21895 -0.2852,0 -8.79573,2.07108 -18.91229,4.60239 l -18.39374,4.6024 0.95271,2.6476 c 1.25741,3.49438 4.93679,7.60715 9.04779,10.11353 4.18393,2.55084 10.94919,2.61468 16.36544,0.15442 z"
     id="path4591"
     inkscape:connector-curvature="0" />
  <path
     style="fill:none;stroke:#000000;stroke-width:1.20000005;stroke-linecap:butt;stroke-linejoin:miter;stroke-miterlimit:4;stroke-dasharray:none;stroke-opacity:1"
     d="m 64.13516,156.24278 -2.33768,-3.16189 4.40335,-4.08811 c 2.42185,-2.24846 7.02234,-6.33811 10.22332,-9.08811 l 5.81996,-5 -14.07369,-6.39908 c -10.53198,-4.78873 -14.07369,-6.85304 -14.07369,-8.20295 0,-2.83419 2.18127,-6.89797 3.70254,-6.89797 2.58888,0 40.29746,18.28791 40.29746,19.54346 0,1.5299 -28.61311,26.45654 -30.36927,26.45654 -0.69004,0 -2.30657,-1.42285 -3.5923,-3.16189 z"
     id="path4589"
     inkscape:connector-curvature="0" />
  <path
     style="fill:none;stroke:#000000;stroke-width:1.20000005;stroke-linecap:butt;stroke-linejoin:miter;stroke-miterlimit:4;stroke-dasharray:none;stroke-opacity:1"
     d="m 81.13314,145.25951 c 7.12997,-6.12984 12.96359,-11.45791 12.96359,-11.84015 0,-0.38225 -7.95179,-4.42402 -17.67064,-8.98172 -16.83661,-7.8956 -17.7358,-8.19814 -19.05122,-6.40985 -1.52881,2.0784 -2.34094,1.59004 18.47186,11.10771 5.21836,2.38635 9.25,4.83744 9.25,5.62366 0,0.76651 -4.44784,5.19946 -9.88409,9.851 -8.02495,6.86657 -9.70846,8.7712 -8.95031,10.12593 0.51358,0.91772 1.1528,1.66858 1.4205,1.66858 0.26769,0 6.32033,-5.01532 13.45031,-11.14516 z"
     id="path4587"
     inkscape:connector-curvature="0" />
  <path
     style="fill:none;stroke:#000000;stroke-width:1.20000005;stroke-linecap:butt;stroke-linejoin:miter;stroke-miterlimit:4;stroke-dasharray:none;stroke-opacity:1"
     d="m 136.26961,133.11681 c -16.96614,-3.81868 -18.29781,-4.27827 -17.93256,-6.18894 0.50204,-2.62625 24.88158,-35.422155 26.37482,-35.480005 1.66399,-0.0645 6.38486,3.91112 6.38486,5.37688 0,0.70121 -3.0049,5.281055 -6.67756,10.177425 -3.67266,4.89638 -7.74971,10.33045 -9.06012,12.07572 l -2.38257,3.17321 12.04711,2.75972 c 6.6259,1.51785 12.5597,3.07652 13.1862,3.46372 1.601,0.98948 -0.24341,8.3637 -2.14897,8.59192 -0.80525,0.0964 -9.71129,-1.6809 -19.79121,-3.94965 z"
     id="path4585"
     inkscape:connector-curvature="0" />
  <path
     style="fill:none;stroke:#000000;stroke-width:1.20000005;stroke-linecap:butt;stroke-linejoin:miter;stroke-miterlimit:4;stroke-dasharray:none;stroke-opacity:1"
     d="m 156.09673,132.37329 c 0,-2.37304 0.76356,-2.07999 -14.25,-5.46918 -8.64771,-1.95215 -11.75,-3.05155 -11.75,-4.16399 0,-0.83134 4.23336,-7.01467 9.40747,-13.74073 8.66646,-11.265925 9.26013,-12.321215 7.53687,-13.397405 -1.67203,-1.04421 -2.86348,0.13058 -11.2242,11.067235 -13.77332,18.01688 -15.03706,19.75745 -14.60959,20.12209 0.57481,0.49033 31.09234,7.41872 33.13945,7.52366 1.12178,0.0575 1.75,-0.63953 1.75,-1.94168 z"
     id="path4573"
     inkscape:connector-curvature="0" />
</svg>
